<svg width="29.999999999999996" height="29.999999999999996" xmlns="http://www.w3.org/2000/svg">
 <style type="text/css">.st0{fill:#0856AD;}</style>

 <g>
  <title>background</title>
  <rect fill="#ffffff" id="canvas_background" height="32" width="32" y="-1" x="-1"/>
 </g>
 <g>
  <title>Layer 1</title>
  <g id="svg_1">
   <path id="svg_2" d="m29,1l0,28l-28,0l0,-28l28,0m1,-1l-30,0l0,30l30,0l0,-30l0,0z" class="st0"/>
  </g>
  <g id="svg_3">
   <g id="svg_4">
    <path id="svg_5" d="m25.200001,21.4c0,0.200001 -0.200001,0.4 -0.400002,0.4l-2.799999,0l0,2c0,0.700001 -0.5,1.200001 -1.200001,1.200001l-11.699999,0c-0.700001,0 -1.2,-0.5 -1.2,-1.200001l0,-2l-2.7,0c-0.2,0 -0.4,-0.199999 -0.4,-0.4l0,-5.1c0,-1.299999 1.1,-2.4 2.4,-2.4l0.8,0l0,-6.7c0,-0.7 0.5,-1.2 1.2,-1.2l8.3,0c0.700001,0 1.5,0.4 2,0.8l1.9,1.9c0.5,0.5 0.800001,1.400001 0.800001,2l0,3.1l0.799999,0c1.299999,0 2.4,1.099999 2.4,2.400001l0,5.199999l-0.199999,0zm-4.700001,-5.9l0,-4.7l-2,0c-0.700001,0 -1.200001,-0.5 -1.200001,-1.2l0,-2l-7.799999,0l0,7.9l11,0zm0,7.9l0,-3.1l-11,0l0,3.1l11,0zm2.4,-7.9c-0.4,0 -0.799999,0.4 -0.799999,0.799999s0.4,0.800001 0.799999,0.800001s0.800001,-0.4 0.800001,-0.800001s-0.400002,-0.799999 -0.800001,-0.799999z" class="st0"/>
   </g>
  </g>
 </g>
</svg>