<svg width="29.999999999999996" height="29.999999999999996" xmlns="http://www.w3.org/2000/svg">
 <style type="text/css">.st0{fill:#0856AD;}</style>

 <g>
  <title>background</title>
  <rect fill="#ffffff" id="canvas_background" height="32" width="32" y="-1" x="-1"/>
 </g>
 <g>
  <title>Layer 1</title>
  <g id="svg_1">
   <path id="svg_2" d="m29,1l0,28l-28,0l0,-28l28,0m1,-1l-30,0l0,30l30,0l0,-30l0,0z" class="st0"/>
  </g>
  <g id="svg_3">
   <g id="svg_4">
    <path id="svg_5" d="m22.299999,12.3c-1.6,1.099999 -3.1,2.2 -4.700001,3.3c-0.699999,0.5 -1.799998,1.4 -2.599998,1.4l0,0l0,0c-0.8,0 -1.9,-0.9 -2.6,-1.4c-1.599999,-1.1 -3.099999,-2.200001 -4.7,-3.3c-0.7,-0.400001 -1.7,-1.6 -1.7,-2.5c0,-1 0.5,-1.8 1.6,-1.8l14.8,0c0.9,0 1.6,0.7 1.6,1.6c0,1.099999 -0.799999,2.099999 -1.700001,2.7zm1.700001,8.2c0,0.9 -0.700001,1.6 -1.6,1.6l-14.8,0c-0.9,0 -1.6,-0.700001 -1.6,-1.6l0,-8c0.3,0.3 0.6,0.6 1,0.9c1.7,1.1 3.4,2.3 5,3.5c0.8,0.6 1.9,1.4 3,1.4l0,0l0,0c1.1,0 2.1,-0.799999 3,-1.4c1.6,-1.2 3.299999,-2.299999 5,-3.5c0.4,-0.299999 0.700001,-0.5 1,-0.9l0,8z" class="st0"/>
   </g>
  </g>
 </g>
</svg>